<?xml version="1.0" standalone="no"?><!DOCTYPE svg PUBLIC "-//W3C//DTD SVG 1.1//EN" "http://www.w3.org/Graphics/SVG/1.1/DTD/svg11.dtd"><svg t="1593328005127" class="icon" viewBox="0 0 1024 1024" version="1.1" xmlns="http://www.w3.org/2000/svg" p-id="1873" xmlns:xlink="http://www.w3.org/1999/xlink" width="200" height="200"><defs><style type="text/css"></style></defs><path d="M957.952 259.2768h-202.752c-15.36-10.752-33.6384-29.696-50.432-63.3344-20.3264-40.8576-93.7472-42.1376-93.7472-42.1376H374.6816s-24.1664-5.7856-52.5824 41.6256c-19.2512 32.1536-36.6592 52.0704-53.0944 63.8464H66.048C29.5424 259.2768 0 289.792 0 327.2192v526.4384C0 891.1872 29.5424 921.6 66.048 921.6h891.904c36.4544 0 66.048-30.4128 66.048-67.9424V327.2192c0-37.5296-29.5936-67.9424-66.048-67.9424zM511.8464 801.5872c-128.4608 0-232.6016-101.1712-232.6016-225.8944 0-124.7744 104.1408-225.8944 232.6016-225.8944 128.4096 0 232.5504 101.12 232.5504 225.8944 0 124.7232-104.1408 225.8944-232.5504 225.8944z m0-379.4944a153.6 153.6 0 1 1 0 307.2 153.6 153.6 0 0 1 0-307.2zM204.8 153.6v51.2H51.2V153.6h153.6z" p-id="1874"></path></svg>