<?xml version="1.0" encoding="UTF-8"?>
<svg width="20px" height="20px" viewBox="0 0 20 20" version="1.1" xmlns="http://www.w3.org/2000/svg" xmlns:xlink="http://www.w3.org/1999/xlink">
    <!-- Generator: Sketch 61.2 (89653) - https://sketch.com -->
    <title>icon_fangzi</title>
    <desc>Created with Sketch.</desc>
    <g id="icon_fangzi" stroke="none" stroke-width="1" fill="none" fill-rule="evenodd">
        <path d="M19.6637292,8.252 L10.6637292,0.252 C10.2847292,-0.084 9.71472918,-0.084 9.33572918,0.252 L7.99972918,1.44 L7.99972918,1 C7.99972918,0.448 7.55272918,7.10542736e-15 6.99972918,7.10542736e-15 L2.99972918,7.10542736e-15 C2.44672918,7.10542736e-15 1.99972918,0.448 1.99972918,1 L1.99972918,6.773 L0.335729179,8.252 C-0.0772708206,8.62 -0.114270821,9.251 0.252729179,9.665 C0.618729179,10.077 1.25072918,10.112 1.66372918,9.748 L1.99972918,9.449 L1.99972918,19 C1.99972918,19.552 2.44672918,20 2.99972918,20 L16.9997292,20 C17.5527292,20 17.9997292,19.552 17.9997292,19 L17.9997292,9.449 L18.3357292,9.748 C18.5257292,9.917 18.7637292,10 18.9997292,10 C19.2747292,10 19.5497292,9.887 19.7467292,9.665 C20.1137292,9.251 20.0767292,8.62 19.6637292,8.252 L19.6637292,8.252 Z M15.9997292,18 L13.9997292,18 L13.9997292,13 C13.9997292,12.448 13.5527292,12 12.9997292,12 L6.99972918,12 C6.44672918,12 5.99972918,12.448 5.99972918,13 L5.99972918,18 L3.99972918,18 L3.99972918,7.671 L9.99972918,2.338 L15.9997292,7.671 L15.9997292,18 Z M7.99972918,18 L11.9997292,18 L11.9997292,14 L7.99972918,14 L7.99972918,18 Z M3.99972918,2 L5.99972918,2 L5.99972918,3.218 L3.99972918,4.996 L3.99972918,2 Z" id="Icon" fill="#909399"></path>
    </g>
</svg>