<?xml version="1.0" encoding="UTF-8"?>
<svg width="20px" height="20px" viewBox="0 0 20 20" version="1.1" xmlns="http://www.w3.org/2000/svg" xmlns:xlink="http://www.w3.org/1999/xlink">
    <!-- Generator: Sketch 52.5 (67469) - http://www.bohemiancoding.com/sketch -->
    <title>icon/关闭 copy</title>
    <desc>Created with Sketch.</desc>
    <g id="icon/关闭-copy" stroke="none" stroke-width="1" fill="none" fill-rule="evenodd">
        <path d="M15.8209055,14.9553902 L10.8664566,10.000963 L15.8209055,5.04440507 C16.0593745,4.80582741 16.0593745,4.41744568 15.8209055,4.17886802 C15.5823279,3.94037733 15.1939461,3.94037733 14.9553685,4.17886802 L10.0009413,9.13329523 L5.04438332,4.17886802 C4.80580566,3.94037733 4.41742393,3.94037733 4.17886802,4.17886802 C3.94037733,4.41744568 3.94037733,4.80582741 4.17886802,5.04440507 L9.13540422,10.000963 L4.17886802,14.9553902 C3.94037733,15.1939461 3.94037733,15.5823496 4.17886802,15.8209055 C4.41742393,16.0593962 4.80580566,16.0593962 5.04438332,15.8209055 L10.0009413,10.8643476 L14.9574992,15.8209055 C15.1959682,16.0593962 15.5844586,16.0593962 15.8229276,15.8209055 C16.0593745,15.5823496 16.0593745,15.1939461 15.8208186,14.9553902 L15.8209055,14.9553902 Z" id="Fill-1" fill="#454F5B"></path>
    </g>
</svg>