<?xml version="1.0" encoding="UTF-8"?>
<svg width="20px" height="20px" viewBox="0 0 20 20" version="1.1" xmlns="http://www.w3.org/2000/svg" xmlns:xlink="http://www.w3.org/1999/xlink">
    <!-- Generator: Sketch 61.2 (89653) - https://sketch.com -->
    <title>icon_zhanwei</title>
    <desc>Created with Sketch.</desc>
    <defs>
        <path d="M11.9997,17.99985 L13.9997,17.99985 L13.9997,11.99985 L11.9997,11.99985 L11.9997,17.99985 Z M9.9997,10.99985 L9.9997,11.99985 L7.9997,11.99985 L7.9997,9.99985 L9.9997,9.99985 L9.9997,10.99985 Z M5.9997,17.99985 L9.9997,17.99985 L9.9997,13.99985 L5.9997,13.99985 L5.9997,17.99985 Z M9.593,0.08625 C9.852,-0.02875 10.147,-0.02875 10.406,0.08625 L10.406,0.08625 L19.406,4.08625 C19.767,4.24625 20,4.60525 20,5.00025 L20,5.00025 L20,19.00025 C20,19.55225 19.552,20.00025 19,20.00025 C18.448,20.00025 18,19.55225 18,19.00025 L18,19.00025 L18,5.64925 L10,2.09425 L2,5.64925 L2,19.00025 C2,19.55225 1.552,20.00025 1,20.00025 C0.448,20.00025 0,19.55225 0,19.00025 L0,19.00025 L0,5.00025 C0,4.60525 0.233,4.24625 0.594,4.08625 L0.594,4.08625 Z M10.9997,7.99985 C11.5517,7.99985 11.9997,8.44785 11.9997,8.99985 L11.9997,8.99985 L11.9997,9.99985 L14.9997,9.99985 C15.5517,9.99985 15.9997,10.44785 15.9997,10.99985 L15.9997,10.99985 L15.9997,18.99985 C15.9997,19.55185 15.5517,19.99985 14.9997,19.99985 L14.9997,19.99985 L4.9997,19.99985 C4.4477,19.99985 3.9997,19.55185 3.9997,18.99985 L3.9997,18.99985 L3.9997,12.99985 C3.9997,12.44785 4.4477,11.99985 4.9997,11.99985 L4.9997,11.99985 L5.9997,11.99985 L5.9997,8.99985 C5.9997,8.44785 6.4477,7.99985 6.9997,7.99985 L6.9997,7.99985 Z" id="path-1"></path>
    </defs>
    <g id="icon_zhanwei" stroke="none" stroke-width="1" fill="none" fill-rule="evenodd">
        <mask id="mask-2" fill="white">
            <use xlink:href="#path-1"></use>
        </mask>
        <use id="Icon" fill="#909399" xlink:href="#path-1"></use>
    </g>
</svg>