<?xml version="1.0" encoding="UTF-8"?>
<svg width="20px" height="20px" viewBox="0 0 20 20" version="1.1" xmlns="http://www.w3.org/2000/svg" xmlns:xlink="http://www.w3.org/1999/xlink">
    <!-- Generator: Sketch 61.2 (89653) - https://sketch.com -->
    <title>icon_dingdan</title>
    <desc>Created with Sketch.</desc>
    <defs>
        <path d="M19,0 L1,0 C0.447,0 0,0.447 0,1 L0,19 C0,19.553 0.447,20 1,20 L19,20 C19.553,20 20,19.553 20,19 L20,1 C20,0.447 19.553,0 19,0 L19,0 Z M2,18 L18,18 L18,2 L2,2 L2,18 Z M9,7 L15,7 C15.553,7 16,6.553 16,6 C16,5.447 15.553,5 15,5 L9,5 C8.447,5 8,5.447 8,6 C8,6.553 8.447,7 9,7 M5,7 C5.553,7 6,6.553 6,6 C6,5.447 5.553,5 5,5 C4.447,5 4,5.447 4,6 C4,6.553 4.447,7 5,7 M9,11 L15,11 C15.553,11 16,10.553 16,10 C16,9.447 15.553,9 15,9 L9,9 C8.447,9 8,9.447 8,10 C8,10.553 8.447,11 9,11 M5,11 C5.553,11 6,10.553 6,10 C6,9.447 5.553,9 5,9 C4.447,9 4,9.447 4,10 C4,10.553 4.447,11 5,11 M9,15 L15,15 C15.553,15 16,14.553 16,14 C16,13.447 15.553,13 15,13 L9,13 C8.447,13 8,13.447 8,14 C8,14.553 8.447,15 9,15 M5,15 C5.553,15 6,14.553 6,14 C6,13.447 5.553,13 5,13 C4.447,13 4,13.447 4,14 C4,14.553 4.447,15 5,15" id="path-1"></path>
    </defs>
    <g id="icon_dingdan" stroke="none" stroke-width="1" fill="none" fill-rule="evenodd">
        <mask id="mask-2" fill="white">
            <use xlink:href="#path-1"></use>
        </mask>
        <use id="Icon" fill="#909399" xlink:href="#path-1"></use>
    </g>
</svg>