<?xml version="1.0" encoding="UTF-8"?>
<svg width="15px" height="15px" viewBox="0 0 15 15" version="1.1" xmlns="http://www.w3.org/2000/svg" xmlns:xlink="http://www.w3.org/1999/xlink">
    <!-- Generator: Sketch 52.5 (67469) - http://www.bohemiancoding.com/sketch -->
    <title>3.Icons/Outlined/search</title>
    <desc>Created with Sketch.</desc>
    <g id="Page-1" stroke="none" stroke-width="1" fill="none" fill-rule="evenodd">
        <g id="全部商品-搜索" transform="translate(-28.000000, -104.000000)" fill="#A3A3A3">
            <g id="分组-2" transform="translate(8.000000, 96.000000)">
                <g id="分组">
                    <g id="3.Icons/Outlined/search" transform="translate(16.793003, 5.000000)">
                        <g id="Icons/Tint-Color/Black" transform="translate(3.500000, 3.333333)">
                            <path d="M10.7711898,9.63450253 L14.3712311,13.0631133 L13.6287689,13.7702201 L10.0212445,10.3344825 C8.96245864,11.1667228 7.60503386,11.6666667 6.125,11.6666667 C2.74225,11.6666667 0,9.055 0,5.83333333 C0,2.61166667 2.74225,0 6.125,0 C9.50775,0 12.25,2.61166667 12.25,5.83333333 C12.25,7.2854034 11.6929156,8.61355279 10.7711898,9.63450253 Z M11.1999977,5.83334366 C11.1999977,3.16396262 8.92784759,1.00001017 6.1249975,1.00001017 C3.3221474,1.00001017 1.04999733,3.16396262 1.04999733,5.83334366 C1.04999733,8.5027247 3.3221474,10.6666772 6.1249975,10.6666772 C8.92784759,10.6666772 11.1999977,8.5027247 11.1999977,5.83334366 Z" id="图标颜色"></path>
                        </g>
                    </g>
                </g>
            </g>
        </g>
    </g>
</svg>