<?xml version="1.0" encoding="UTF-8"?>
<svg width="20px" height="20px" viewBox="0 0 20 20" version="1.1" xmlns="http://www.w3.org/2000/svg" xmlns:xlink="http://www.w3.org/1999/xlink">
    <!-- Generator: Sketch 61.2 (89653) - https://sketch.com -->
    <title>icon_laba_on</title>
    <desc>Created with Sketch.</desc>
    <g id="icon_laba_on" stroke="none" stroke-width="1" fill="none" fill-rule="evenodd">
        <path d="M18,14.6 C16,13.1 13.1,12.3 11,12 L11,6.901 C13.1,6.701 16,5.8 18,4.3 L18,14.6 Z M9,18 L7.651,18 L5.6,14 L9,14 L9,18 Z M9,12 L4.5,12 C3.1,12 2,10.901 2,9.5 C2,8.1 3.1,7 4.5,7 L9,7 L9,12 Z M19,0 C18.5,0 18,0.5 18,1 C18,3 12.9,5 10,5 L4.5,5 C2,5 0,7 0,9.5 C0,11.6 1.4,13.3 3.3,13.8 L5.8,18.8 C6.1,19.5 6.8,20 7.6,20 L9,20 C10.1,20 11,19.1 11,18 L11,14.1 C14,14.401 18,16.201 18,18 C18,18.5 18.5,19 19,19 C19.5,19 20,18.5 20,18 L20,1 C20,0.5 19.5,0 19,0 L19,0 Z" id="Fill-1" fill="#ECBB49"></path>
    </g>
</svg>