<?xml version="1.0" encoding="UTF-8"?>
<svg width="20px" height="20px" viewBox="0 0 20 20" version="1.1" xmlns="http://www.w3.org/2000/svg" xmlns:xlink="http://www.w3.org/1999/xlink">
    <!-- Generator: Sketch 61.2 (89653) - https://sketch.com -->
    <title>icon_wode_on</title>
    <desc>Created with Sketch.</desc>
    <g id="icon_wode_on" stroke="none" stroke-width="1" fill="none" fill-rule="evenodd">
        <path d="M10.0003855,12 C14.3643855,12 17.5723855,15.158 17.7073855,15.293 C17.9753855,15.561 18.0683855,15.957 17.9483855,16.316 L17.9483855,16.316 L16.9483855,19.316 C16.8123855,19.725 16.4303855,20 16.0003855,20 L16.0003855,20 L4.00038548,20 C3.56938548,20 3.18738548,19.725 3.05138548,19.316 L3.05138548,19.316 L2.05138548,16.316 C1.93138548,15.957 2.02538548,15.561 2.29338548,15.293 C2.42738548,15.158 5.63538548,12 10.0003855,12 Z M10.0003855,14 C7.29738548,14 5.07338548,15.558 4.15738548,16.31 L4.15738548,16.31 L4.72038548,18 L15.2793855,18 L15.8413855,16.313 C14.9213855,15.561 12.6863855,14 10.0003855,14 Z M10.0000855,2 C11.6540855,2 13.0000855,3.346 13.0000855,5 C13.0000855,6.654 11.6540855,8 10.0000855,8 C8.34608548,8 7.00008548,6.654 7.00008548,5 C7.00008548,3.346 8.34608548,2 10.0000855,2 Z M10.0000855,10 C12.7570855,10 15.0000855,7.757 15.0000855,5 C15.0000855,2.243 12.7570855,0 10.0000855,0 C7.24308548,0 5.00008548,2.243 5.00008548,5 C5.00008548,7.757 7.24308548,10 10.0000855,10" id="Icon" fill="#ECBB49"></path>
    </g>
</svg>