<?xml version="1.0" encoding="UTF-8"?>
<svg width="20px" height="20px" viewBox="0 0 20 20" version="1.1" xmlns="http://www.w3.org/2000/svg" xmlns:xlink="http://www.w3.org/1999/xlink">
    <!-- Generator: Sketch 61.2 (89653) - https://sketch.com -->
    <title>icon_gouwuche</title>
    <desc>Created with Sketch.</desc>
    <g id="icon_gouwuche" stroke="none" stroke-width="1" fill="none" fill-rule="evenodd">
        <path d="M17,18 C16.449,18 16,17.551 16,17 C16,16.449 16.449,16 17,16 C17.551,16 18,16.449 18,17 C18,17.551 17.551,18 17,18 L17,18 Z M4,17 C4,17.551 3.551,18 3,18 C2.449,18 2,17.551 2,17 C2,16.449 2.449,16 3,16 C3.551,16 4,16.449 4,17 L4,17 Z M17.666,5.841 L16.279,10 L4,10 L4,4.133 L17.666,5.841 Z M17,14 L4,14 L4,12 L17,12 C17.431,12 17.812,11.725 17.949,11.316 L19.949,5.316 C20.043,5.032 20.006,4.72 19.846,4.467 C19.686,4.213 19.421,4.045 19.124,4.008 L4,2.117 L4,1 C4,0.448 3.552,0 3,0 L1,0 C0.448,0 1.0125234e-13,0.448 1.0125234e-13,1 C1.0125234e-13,1.552 0.448,2 1,2 L2,2 L2,14.184 C0.838,14.599 1.0125234e-13,15.698 1.0125234e-13,17 C1.0125234e-13,18.654 1.346,20 3,20 C4.654,20 6,18.654 6,17 C6,16.647 5.928,16.314 5.816,16 L14.184,16 C14.072,16.314 14,16.647 14,17 C14,18.654 15.346,20 17,20 C18.654,20 20,18.654 20,17 C20,15.346 18.654,14 17,14 L17,14 Z" id="蒙版" fill="#909399"></path>
    </g>
</svg>