<?xml version="1.0" encoding="UTF-8"?>
<svg width="25px" height="25px" viewBox="0 0 25 25" version="1.1" xmlns="http://www.w3.org/2000/svg" xmlns:xlink="http://www.w3.org/1999/xlink">
    <!-- Generator: Sketch 61.2 (89653) - https://sketch.com -->
    <title>复合/复合_叉子半透</title>
    <desc>Created with Sketch.</desc>
    <g id="复合/复合_叉子半透" stroke="none" stroke-width="1" fill="none" fill-rule="evenodd">
        <g id="复合/复合_叉子">
            <circle id="椭圆形" fill-opacity="0.7" fill="#000000" cx="12.5" cy="12.5" r="12.5"></circle>
            <g id="符号/符号_叉子" transform="translate(5.000000, 5.000000)" fill="#FFFFFF">
                <path d="M7.5,6.3115348 L11.0653956,2.7461392 C11.3935812,2.4179536 11.9256752,2.4179536 12.2538608,2.7461392 C12.5820464,3.0743248 12.5820464,3.6064188 12.2538608,3.9346044 L8.6884652,7.5 L12.2538608,11.0653956 C12.5820464,11.3935812 12.5820464,11.9256752 12.2538608,12.2538608 C11.9256752,12.5820464 11.3935812,12.5820464 11.0653956,12.2538608 L7.5,8.6884652 L3.9346044,12.2538608 C3.6064188,12.5820464 3.0743248,12.5820464 2.7461392,12.2538608 C2.4179536,11.9256752 2.4179536,11.3935812 2.7461392,11.0653956 L6.3115348,7.5 L2.7461392,3.9346044 C2.4179536,3.6064188 2.4179536,3.0743248 2.7461392,2.7461392 C3.0743248,2.4179536 3.6064188,2.4179536 3.9346044,2.7461392 L7.5,6.3115348 Z" id="路径"></path>
            </g>
        </g>
    </g>
</svg>