<?xml version="1.0" encoding="UTF-8"?>
<svg width="26px" height="26px" viewBox="0 0 26 26" version="1.1" xmlns="http://www.w3.org/2000/svg" xmlns:xlink="http://www.w3.org/1999/xlink">
    <!-- Generator: Sketch 52.5 (67469) - http://www.bohemiancoding.com/sketch -->
    <title>zhanghuyue</title>
    <desc>Created with Sketch.</desc>
    <g id="Page-1" stroke="none" stroke-width="1" fill="none" fill-rule="evenodd">
        <g id="立即购买11" transform="translate(-24.000000, -530.000000)" fill="#D3B365">
            <g id="分组-23" transform="translate(0.000000, 280.000000)">
                <g id="分组-3" transform="translate(24.000000, 250.000000)">
                    <path d="M12.9999817,26 C3.84150611,26 0,23.0948489 0,17.1248672 C0,12.1790102 4.35603623,7.01752756 9.63682473,5.38923004 L16.3631753,5.38923004 C21.6440733,7.01752756 26,12.1788807 26,17.1248672 C26,23.0948489 22.1584939,26 12.9998357,26 L12.9999817,26 Z M16.6026054,16.1897446 L16.6026054,16.1877049 C17.2104541,16.184953 17.7020197,15.7470969 17.7020197,15.207709 C17.7020197,14.6676735 17.2105636,14.2303355 16.6026054,14.226936 L16.6026054,14.2246696 L14.3728166,14.2246696 C14.3772343,14.2025243 14.3699689,14.1829367 14.3720864,14.1609208 L16.9853723,11.7918877 C17.4116586,11.3660755 17.194755,11.0139841 16.7639049,10.6278652 C16.3303531,10.239739 15.6218474,10.1582804 15.271574,10.4965796 L13.0245162,12.6207838 L10.5973564,10.4682504 C10.2901644,10.1960959 9.69257493,10.284742 9.26260109,10.6661987 C8.83233517,11.0479791 8.7326639,11.5782693 9.03956379,11.8504563 L11.5219261,14.0511331 C11.4754129,14.1038739 11.445475,14.162313 11.4273662,14.2246696 L9.40991742,14.2246696 L9.40991742,14.2264179 L9.40436796,14.2264179 C8.79326987,14.2264179 8.29779777,14.6652777 8.29779777,15.2075795 C8.29779777,15.7488776 8.79326987,16.188741 9.40436796,16.188741 C9.40608391,16.188741 9.40809194,16.1877049 9.40991742,16.1877049 L9.40991742,16.1897446 L11.6213418,16.1897446 L11.6213418,17.1669886 L9.40991742,17.1669886 L9.40991742,17.1698701 L9.40436796,17.1698701 C8.79326987,17.1698701 8.29779777,17.6087299 8.29779777,18.1509021 C8.29779777,18.6923297 8.79326987,19.1320636 9.40436796,19.1320636 C9.40608391,19.1320636 9.40809194,19.13106 9.40991742,19.13106 L9.40991742,19.1320636 L11.6213418,19.1320636 L11.6213418,20.119927 L11.6443064,20.119927 C11.6268913,20.1965616 11.6170337,20.2765956 11.6170337,20.3584427 C11.6170337,21.0359476 12.2361274,21.5849512 12.9999817,21.5849512 C13.7638361,21.5849512 14.3829298,21.0358181 14.3829298,20.3584427 C14.3829298,20.2765956 14.3728166,20.1965616 14.3555476,20.119927 L14.368545,20.119927 L14.368545,19.1320636 L16.6027514,19.13106 C17.2104541,19.1277576 17.7021657,18.69029 17.7021657,18.1509021 C17.7021657,17.6109962 17.2104541,17.1736905 16.6027514,17.1702586 L16.6027514,17.1668591 L14.368545,17.1668591 L14.368545,16.1896151 L16.6027514,16.1896151 L16.6026054,16.1897446 Z M18.255104,1.47183625 L18.0226472,1.72958339 C18.0174993,1.73440744 18.0139214,1.74007328 18.0088101,1.74489734 L16.0424017,3.92459435 L9.40422192,3.92459435 L7.44153756,1.74868536 C7.42700673,1.73615576 7.41744121,1.72097131 7.40404218,1.70743805 L7.19141013,1.47183625 L7.22890551,1.40520598 C7.21079674,1.34472719 7.18684643,1.28593197 7.18684643,1.220791 C7.18684643,0.908425176 7.4083138,0.644461809 7.71835353,0.537102245 L7.74460395,0.490674737 C7.74460395,0.490674737 10.4638407,0.00820422366 12.7233118,0.000110167264 C15.0878941,-0.00850190874 17.7020197,0.490674737 17.7020197,0.490674737 L17.7288543,0.537620264 C18.036886,0.645853986 18.2565279,0.909428839 18.2565279,1.2206615 C18.2565279,1.2849283 18.2327236,1.34194284 18.2156006,1.40077044 L18.255104,1.47183625 Z" id="zhanghuyue"></path>
                </g>
            </g>
        </g>
    </g>
</svg>