<?xml version="1.0" encoding="UTF-8"?>
<svg width="32px" height="32px" viewBox="0 0 32 32" version="1.1" xmlns="http://www.w3.org/2000/svg" xmlns:xlink="http://www.w3.org/1999/xlink">
    <!-- Generator: Sketch 52.5 (67469) - http://www.bohemiancoding.com/sketch -->
    <title>Icon/待系列 Copy 4</title>
    <desc>Created with Sketch.</desc>
    <g id="Icon/待系列-Copy-4" stroke="none" stroke-width="1" fill="none" fill-rule="evenodd">
        <path d="M22.2294891,31.3012793 C22.2294891,31.7327308 22.5793908,32.0826325 23.0108423,32.0826325 C23.4424846,32.0826325 23.7923386,31.7327308 23.7923386,31.3012793 C23.7923386,30.869637 23.4424846,30.519783 23.0108423,30.519783 C22.5793908,30.519783 22.2294891,30.869637 22.2294891,31.3012793" id="Fill-3" fill="#5294F9"></path>
        <path d="M24.0070581,22.4523589 C22.6397377,22.4523589 21.5262712,21.3389401 21.5262712,19.971572 C21.5262712,18.6042516 22.6397377,17.4907374 24.0070581,17.4907374 L30.3945633,17.4907374 L30.3945633,22.432806 L24.0070581,22.432806 L24.0070581,22.4523589 Z M23.2258003,1.64892519 C23.4014426,1.59021878 23.5188077,1.64892519 23.5773234,1.68784024 C23.6359821,1.72694605 23.7531565,1.82456751 23.7531565,2.00044829 L23.7531565,7.80203398 L6.71961848,7.80203398 L23.2258003,1.64892519 Z M29.2226289,7.80203398 L25.3157675,7.80203398 L25.3157675,2.02004888 C25.3157675,1.37542295 25.0033502,0.789360358 24.4759463,0.418284352 C23.9484471,0.0470175857 23.2842683,-0.0310509687 22.6788435,0.183744858 L1.54320119,8.05593562 C1.44543666,8.09508912 1.3478152,8.15355708 1.26974665,8.23181639 C0.507803279,8.72006677 0,9.560031 0,10.5367702 L0,29.3869639 C0,30.8910593 1.23064083,32.1217001 2.73473621,32.1217001 L20.2176095,32.1217001 C20.6471535,32.1217001 20.9988674,31.7699863 20.9988674,31.3402039 C20.9988674,30.9104692 20.6471535,30.5589461 20.2176095,30.5589461 L2.75428912,30.5589461 C2.10971088,30.5589461 1.58216393,30.0315422 1.58216393,29.3869639 L1.58216393,10.5367702 C1.58216393,9.89219195 2.10971088,9.36464501 2.75428912,9.36464501 L29.2226289,9.36464501 C29.8671595,9.36464501 30.3945633,9.89219195 30.3945633,10.5367702 L30.3945633,15.9281741 L24.0070581,15.9281741 C21.7801729,15.9281741 19.9634694,17.744639 19.9634694,19.971572 C19.9634694,22.1984572 21.7801729,24.0152083 24.0070581,24.0152083 L30.3945633,24.0152083 L30.3945633,29.4063738 C30.3945633,30.0510951 29.8671595,30.578499 29.2226289,30.578499 L25.7651028,30.578499 C25.3353204,30.578499 24.9837973,30.9300221 24.9837973,31.3598045 C24.9837973,31.7895392 25.3353204,32.1410623 25.7651028,32.1410623 L28.382617,32.1021472 C29.8867601,32.1021472 31.9573174,30.9104692 31.9573174,29.4063738 L31.9573174,10.5367702 C31.9573174,9.03267481 30.7267243,7.80203398 29.2226289,7.80203398 Z" id="Fill-5" fill="#4A4A4A"></path>
        <path d="M4.72712344,26 C4.32732316,26 4,26.3271456 4,26.7271234 C4,27.1271012 4.32732316,27.4542469 4.72712344,27.4542469 L14.9075617,27.4542469 C15.3075395,27.4542469 15.6346852,27.1271012 15.6346852,26.7271234 C15.6346852,26.3271456 15.3075395,26 14.9075617,26 L4.72712344,26 Z" id="Fill-9-Copy" fill="#D3B365"></path>
    </g>
</svg>