<?xml version="1.0" encoding="UTF-8"?>
<svg width="32px" height="32px" viewBox="0 0 32 32" version="1.1" xmlns="http://www.w3.org/2000/svg" xmlns:xlink="http://www.w3.org/1999/xlink">
    <!-- Generator: Sketch 52.5 (67469) - http://www.bohemiancoding.com/sketch -->
    <title>Icon/待系列</title>
    <desc>Created with Sketch.</desc>
    <g id="Icon/待系列" stroke="none" stroke-width="1" fill="none" fill-rule="evenodd">
        <path d="M3.80338571,10.6049571 L4.67176667,9.06400476 L2.92576667,9.06400476 L6.30005238,3.0761 C6.51452857,2.78352857 6.86571905,2.6081 7.23624286,2.6081 L24.6540048,2.6081 C25.0245762,2.6081 25.3757667,2.78352857 25.5901952,3.0761 L26.4519095,4.59643333 C26.4572429,4.6033381 26.4628619,4.60995714 26.4680048,4.61700476 L29.8618143,10.6049571 L3.80338571,10.6049571 Z M31.3636714,10.0588143 L26.9555286,2.27643333 L26.916481,2.2178619 C26.4094333,1.47676667 25.5706714,1.04762381 24.6735286,1.04762381 L7.25576667,1.04762381 C6.35862381,1.04762381 5.51990952,1.47676667 5.01267143,2.2178619 L0.390052381,10.3709095 L0.390052381,10.390481 C0.136528571,10.8000524 4.76190476e-06,11.2875762 4.76190476e-06,11.7948619 L4.76190476e-06,27.3986238 C4.76190476e-06,28.9005286 1.22881429,30.1292905 2.73067143,30.1292905 L20.9481,30.1292905 C21.3772429,30.1292905 21.7282429,29.7781 21.7282429,29.3490048 C21.7282429,28.9200524 21.3772429,28.5688619 20.9481,28.5688619 L2.71114762,28.5688619 C2.06752857,28.5688619 1.54090952,28.0422429 1.54090952,27.3986238 L1.54090952,11.7948619 C1.54090952,11.1510524 2.06752857,10.624481 2.71114762,10.624481 L29.237719,10.624481 C29.8813381,10.624481 30.4079095,11.1510524 30.4079095,11.7948619 L30.4079095,27.3986238 C30.4079095,28.0422429 29.8813381,28.5688619 29.237719,28.5688619 L26.7410524,28.5688619 C26.3119571,28.5688619 25.9607667,28.9200524 25.9607667,29.3490048 C25.9607667,29.7781 26.3119571,30.1292905 26.7410524,30.1292905 L29.237719,30.1292905 C30.7395762,30.1292905 31.9683857,28.9005286 31.9683857,27.3986238 L31.9683857,11.7948619 C31.9683857,11.1315286 31.7341952,10.5465286 31.3636714,10.0588143 Z" id="Fill-5" fill="#4A4A4A"></path>
        <path d="M23.0156238,29.3490048 C23.0156238,29.7799571 23.3649571,30.1292905 23.7957667,30.1292905 C24.2267667,30.1292905 24.5761,29.7799571 24.5761,29.3490048 C24.5761,28.9181952 24.2267667,28.5688619 23.7957667,28.5688619 C23.3649571,28.5688619 23.0156238,28.9181952 23.0156238,29.3490048" id="Fill-3" fill="#5294F9"></path>
        <path d="M26.4519143,4.59644762 L28.9840095,9.06397143 L4.67177143,9.06397143 L3.80339048,10.6049714 L29.8617714,10.6049714 L26.4680095,4.61701905 C26.462819,4.60997143 26.4572476,4.60335238 26.4519143,4.59644762" id="Fill-7" fill="#4A4A4A"></path>
        <path d="M16.208519,19.7333048 C16.208519,19.3041143 15.8573286,18.9529238 15.4281857,18.9529238 L4.50556667,18.9529238 C4.07642381,18.9529238 3.72542381,19.3041143 3.72542381,19.7333048 C3.72542381,20.1622571 4.07642381,20.5134476 4.50556667,20.5134476 L15.4281857,20.5134476 C15.8573286,20.5134476 16.208519,20.1622571 16.208519,19.7333048" id="Fill-11" fill="#D3B365"></path>
        <path d="M4.50558095,23.3026905 C4.0764381,23.3026905 3.7254381,23.6536429 3.7254381,24.0828333 C3.7254381,24.5119286 4.0764381,24.8629286 4.50558095,24.8629286 L9.94739048,24.8629286 C10.3764857,24.8629286 10.7276762,24.5119286 10.7276762,24.0828333 C10.7276762,23.6536429 10.3764857,23.3026905 9.94739048,23.3026905 L4.50558095,23.3026905 Z" id="Fill-13" fill="#D3B365"></path>
    </g>
</svg>