<?xml version="1.0" encoding="UTF-8"?>
<svg width="32px" height="32px" viewBox="0 0 32 32" version="1.1" xmlns="http://www.w3.org/2000/svg" xmlns:xlink="http://www.w3.org/1999/xlink">
    <!-- Generator: Sketch 52.5 (67469) - http://www.bohemiancoding.com/sketch -->
    <title>Icon/待系列 Copy 3</title>
    <desc>Created with Sketch.</desc>
    <g id="Icon/待系列-Copy-3" stroke="none" stroke-width="1" fill="none" fill-rule="evenodd">
        <path d="M30.3848727,27.1705775 C30.3848727,26.7323526 30.7424,26.37369 31.1791515,26.37369 C31.6160485,26.37369 31.9736727,26.7323526 31.9736727,27.1506383 L31.9736727,29.5410091 C31.9736727,31.0748693 30.7225212,32.3297751 29.1933576,32.3297751 L2.78031515,32.3297751 C1.25115152,32.3297751 -3.33955086e-13,31.0748693 -3.33955086e-13,29.5410091 L-3.33955086e-13,5.81651064 C-3.33955086e-13,4.28265046 1.25115152,3.02774468 2.78031515,3.02774468 L6.89129697,3.02774468 L6.89129697,1.59367781 C6.89129697,0.717130699 7.60606061,-1.0658141e-13 8.47990303,-1.0658141e-13 L23.5134545,-1.0658141e-13 C24.387297,-1.0658141e-13 25.1022545,0.717130699 25.1022545,1.59367781 L25.1022545,3.02774468 L29.1933576,3.02774468 C30.7225212,3.02774468 31.9736727,4.28265046 31.9736727,5.81651064 L31.9736727,21.2942492 C31.9736727,21.7325228 31.6160485,22.0909909 31.1791515,22.0909909 C30.7424,22.0909909 30.3848727,21.7325228 30.3848727,21.2942492 L30.3848727,5.81651064 C30.3848727,5.15919757 29.8486788,4.62142249 29.1933576,4.62142249 L25.1022545,4.62142249 L25.1022545,6.05568389 C25.1022545,6.93198784 24.387297,7.64911854 23.5134545,7.64911854 L8.46002424,7.64911854 C7.58637576,7.64911854 6.87141818,6.93198784 6.87141818,6.05568389 L6.87141818,4.62142249 L2.78031515,4.62142249 C2.12499394,4.62142249 1.58884848,5.15919757 1.58884848,5.81651064 L1.58884848,29.560997 C1.58884848,30.2182614 2.12499394,30.7560851 2.78031515,30.7560851 L29.1933576,30.7560851 C29.8486788,30.7560851 30.3848727,30.2182614 30.3848727,29.560997 L30.3848727,27.1705775 Z M8.47990303,6.03579331 L23.5333818,6.03579331 L23.5333818,1.61342249 L8.47990303,1.61342249 L8.47990303,6.03579331 Z" id="Fill-7" fill="#4A4A4A"></path>
        <path d="M30.3848679,24.2821058 C30.3848679,24.722276 30.7405042,25.0790419 31.1791467,25.0790419 C31.617983,25.0790419 31.9737164,24.722276 31.9737164,24.2821058 C31.9737164,23.8421301 31.617983,23.4853641 31.1791467,23.4853641 C30.7405042,23.4853641 30.3848679,23.8421301 30.3848679,24.2821058" id="Fill-5" fill="#5294F9"></path>
        <path d="M25.2810764,11.9120924 L14.0206642,23.2064875 L8.45998545,17.6290043 C8.14245818,17.3102687 7.64577939,17.3102687 7.32805818,17.6290043 C7.01043394,17.9477398 7.01043394,18.4456851 7.32805818,18.7644207 L12.8888339,24.3419526 C13.2064582,24.6607368 13.6035491,24.8001653 14.0206642,24.8001653 C14.4179491,24.8001653 14.8350642,24.6407489 15.15264,24.3419526 L26.4131006,13.0475088 C26.7306279,12.7287733 26.7306279,12.230828 26.4131006,11.9120924 C26.0952824,11.5932596 25.5987006,11.5932596 25.2810764,11.9120924" id="Fill-9" fill="#D3B365"></path>
    </g>
</svg>