<?xml version="1.0" encoding="UTF-8"?>
<svg width="32px" height="32px" viewBox="0 0 32 32" version="1.1" xmlns="http://www.w3.org/2000/svg" xmlns:xlink="http://www.w3.org/1999/xlink">
    <!-- Generator: Sketch 52.5 (67469) - http://www.bohemiancoding.com/sketch -->
    <title>Icon/待系列 Copy 2</title>
    <desc>Created with Sketch.</desc>
    <g id="Icon/待系列-Copy-2" stroke="none" stroke-width="1" fill="none" fill-rule="evenodd">
        <path d="M23.8634284,32.0872569 C24.296122,32.0872569 24.6470218,31.736357 24.6470218,31.3035678 C24.6470218,30.870635 24.296122,30.519783 23.8634284,30.519783 C23.4304957,30.519783 23.0795958,30.870635 23.0795958,31.3035678 C23.0795958,31.736357 23.4304957,32.0872569 23.8634284,32.0872569 Z" id="Fill-5" fill="#5294F9"></path>
        <path d="M16.281203,20.0947566 C15.9284377,20.262148 15.5169818,20.262148 15.1840191,20.0947566 L4.99606099,14.8892841 L4.99606099,2.02443053 C4.99606099,1.81982089 5.17227623,1.65261106 5.38790553,1.65261106 L26.5474631,1.65261106 C26.762901,1.65261106 26.9392598,1.81982089 26.9392598,2.02443053 L26.9392598,14.8336383 L16.281203,20.0947566 Z M31.2339957,13.5182718 C30.7624638,13.236251 30.19276,13.2173853 29.7017088,13.4618125 L28.5820124,14.0258542 L28.5820124,1.88018475 C28.5820124,0.846108386 27.6979381,1.42108547e-14 26.617568,1.42108547e-14 L5.38242248,1.42108547e-14 C4.30205235,1.42108547e-14 3.41802596,0.846108386 3.41802596,1.88018475 L3.41802596,14.0821757 L2.31794473,13.5182718 C1.82694152,13.2737069 1.23757461,13.2737069 0.766042714,13.5557277 C0.294702652,13.8377944 -4.78325781e-06,14.3079209 -4.78325781e-06,14.8531887 L-4.78325781e-06,29.3678515 C-4.78325781e-06,30.8155492 1.23757461,32 2.75015033,32 L20.9600964,32 C21.392302,32 21.7458071,31.661474 21.7458071,31.2478527 C21.7458071,30.8341854 21.392302,30.495843 20.9600964,30.495843 L2.75015033,30.495843 C2.10193785,30.495843 1.57160834,29.9882147 1.57160834,29.3678515 L1.57160834,14.834369 L14.4775879,21.4710847 C15.2829617,21.8847979 16.2454968,21.8847979 17.0508706,21.4899504 L30.42843,14.8155033 L30.42843,29.3489859 C30.42843,29.9694409 29.8980526,30.4770233 29.2498881,30.4770233 L26.7943924,30.4770233 C26.3622348,30.4770233 26.0085379,30.8155492 26.0085379,31.2290329 C26.0085379,31.6426543 26.3622348,31.9811803 26.7943924,31.9811803 L29.2498881,31.9811803 C30.7624638,31.9811803 31.9999952,30.7967295 31.9999952,29.3489859 L31.9999952,14.8155033 C31.9999952,14.2702355 31.7053357,13.800109 31.2339957,13.5182718 Z" id="Fill-7" fill="#4A4A4A"></path>
        <path d="M22.4527067,11.663481 L9.4239713,11.663481 C8.99290404,11.663481 8.64013871,12.016055 8.64013871,12.4470744 C8.64013871,12.8781895 8.99290404,13.2307157 9.4239713,13.2307157 L22.4527067,13.2307157 C22.883774,13.2307157 23.236348,12.8781895 23.236348,12.4470744 C23.236348,12.016055 22.9033854,11.663481 22.4527067,11.663481" id="路径" fill="#D3B365"></path>
        <path d="M22.4527067,6.2755707 L9.4239713,6.2755707 C8.99290404,6.2755707 8.64013871,6.62814469 8.64013871,7.05921196 C8.64013871,7.49027922 8.99290404,7.84285321 9.4239713,7.84285321 L22.4527067,7.84285321 C22.883774,7.84285321 23.236348,7.49027922 23.236348,7.05921196 C23.236348,6.62814469 22.9033854,6.2755707 22.4527067,6.2755707" id="路径" fill="#D3B365"></path>
    </g>
</svg>