<?xml version="1.0" encoding="UTF-8"?>
<svg width="32px" height="32px" viewBox="0 0 32 32" version="1.1" xmlns="http://www.w3.org/2000/svg" xmlns:xlink="http://www.w3.org/1999/xlink">
    <!-- Generator: Sketch 52.5 (67469) - http://www.bohemiancoding.com/sketch -->
    <title>Icon/待系列 Copy</title>
    <desc>Created with Sketch.</desc>
    <g id="Icon/待系列-Copy" stroke="none" stroke-width="1" fill="none" fill-rule="evenodd">
        <path d="M23.5965692,27.2591445 C23.5965692,27.6608976 23.9221614,27.9863123 24.3236926,27.9863123 C24.7254014,27.9863123 25.0509936,27.6608976 25.0509936,27.2591445 C25.0509936,26.8576577 24.7254014,26.5320655 24.3236926,26.5320655 C23.9221614,26.5320655 23.5965692,26.8576577 23.5965692,27.2591445" id="Fill-5" fill="#5294F9"></path>
        <path d="M1.45442885,12.3158813 L1.45442885,6.58947906 C1.45442885,5.98960111 1.94521387,5.49872732 2.54509182,5.49872732 L29.4139961,5.49872732 C30.0138741,5.49872732 30.5047035,5.98960111 30.5047035,6.58947906 L30.5047035,12.3158813 L1.45442885,12.3158813 Z M29.3957992,4.04439168 L2.54509182,4.04439168 C1.14530264,4.04439168 4.43828017e-06,5.18964549 4.43828017e-06,6.58947906 L4.43828017e-06,25.4411628 C4.43828017e-06,26.8410408 1.14530264,27.9862946 2.54509182,27.9862946 L21.5060904,27.9862946 C21.9058463,27.9862946 22.2331695,27.659149 22.2331695,27.2591268 C22.2331695,26.8592377 21.9058463,26.5320921 21.5060904,26.5320921 L2.54509182,26.5320921 C1.94521387,26.5320921 1.45442885,26.0412627 1.45442885,25.4411628 L1.45442885,13.7703057 L30.5047035,13.7703057 L30.5047035,25.4411628 C30.5047035,26.0412627 30.0138741,26.5320921 29.4139961,26.5320921 L26.9051695,26.5320921 C26.5051917,26.5320921 26.178046,26.8592377 26.178046,27.2591268 C26.178046,27.659149 26.5051917,27.9862946 26.9051695,27.9862946 L29.4139961,27.9862946 C30.8137853,27.9862946 31.9590835,26.8410408 31.9590835,25.4411628 L31.9590835,6.58947906 C31.9408865,5.18964549 30.7955883,4.04439168 29.3957992,4.04439168 Z" id="Fill-7" fill="#4A4A4A"></path>
        <path d="M5.72712344,18 C5.32732316,18 5,18.3271456 5,18.7271234 C5,19.1271012 5.32732316,19.4542469 5.72712344,19.4542469 L15.9075617,19.4542469 C16.3075395,19.4542469 16.6346852,19.1271012 16.6346852,18.7271234 C16.6346852,18.3271456 16.3075395,18 15.9075617,18 L5.72712344,18 Z" id="Fill-9" fill="#D3B365"></path>
    </g>
</svg>