<?xml version="1.0" encoding="UTF-8"?>
<svg width="26px" height="24px" viewBox="0 0 26 24" version="1.1" xmlns="http://www.w3.org/2000/svg" xmlns:xlink="http://www.w3.org/1999/xlink">
    <!-- Generator: Sketch 52.5 (67469) - http://www.bohemiancoding.com/sketch -->
    <title>Fill 1</title>
    <desc>Created with Sketch.</desc>
    <g id="Page-1" stroke="none" stroke-width="1" fill="none" fill-rule="evenodd">
        <g id="立即购买11" transform="translate(-24.000000, -465.000000)" fill="#1FAC38">
            <g id="分组-23" transform="translate(0.000000, 280.000000)">
                <g id="分组-2" transform="translate(24.000000, 185.000000)">
                    <path d="M9.90756114,15.0922137 C8.35173362,15.9584497 8.12122489,14.6058932 8.12122489,14.6058932 L6.17213319,10.0616348 C5.42196507,7.90235031 6.82119651,9.08768199 6.82119651,9.08768199 C6.82119651,9.08768199 8.02145415,9.9949118 8.93307205,10.5479553 C9.84324236,11.1011478 10.8821638,10.7103205 10.8821638,10.7103205 L23.6257969,4.83434534 C21.2745852,1.91072795 17.3914738,0 12.9940109,0 C5.81721616,0 0,5.08579379 0,11.3603776 C0,14.9693516 1.92581659,18.1809689 4.92612009,20.2627975 L4.38582533,23.3702758 C4.38582533,23.3702758 4.12182314,24.2775056 5.03554148,23.8566261 C5.65854803,23.5691925 7.24653493,22.5420224 8.19164629,21.9164124 C9.67781878,22.4336199 11.2966026,22.7209043 12.9940109,22.7209043 C20.1701245,22.7209043 25.9880218,17.6351106 25.9880218,11.3603776 C25.9880218,9.54302609 25.4976266,7.8261764 24.6291245,6.30335404 C20.5688384,8.74354286 11.1241965,14.4154733 9.90756114,15.0922137 Z" id="Fill-1"></path>
                </g>
            </g>
        </g>
    </g>
</svg>