<?xml version="1.0" encoding="UTF-8"?>
<svg width="20px" height="20px" viewBox="0 0 20 20" version="1.1" xmlns="http://www.w3.org/2000/svg" xmlns:xlink="http://www.w3.org/1999/xlink">
    <!-- Generator: Sketch 52.5 (67469) - http://www.bohemiancoding.com/sketch -->
    <title>icon/ 自定义 copy 3</title>
    <desc>Created with Sketch.</desc>
    <g id="icon/-自定义-copy-3" stroke="none" stroke-width="1" fill="none" fill-rule="evenodd">
        <path d="M18.938742,6.67158003 L18.938742,5.2976186 C18.938742,4.11758759 18.2580541,3 17.0002751,3 L10.2614011,3 L10.0001185,2.30669824 C9.73886384,1.80898616 9.36989464,1.5 8.80599038,1.5 L2.04475737,1.5 C0.917032704,1.5 0,2.43889823 0,3.59312937 L0,16.4077334 C0,17.5614357 0.917032704,19 2.04475737,19 L17.9552426,19 C19.0829673,19 20,17.5614357 20,16.4077334 L20,8.54258559 C20,7.86051714 19.5471157,7.13862171 18.938742,6.67158003 Z M16.7411225,4.05432642 C17.178075,4.05432642 18.0440799,4.00018926 18,5.2976186 L18,6.16679873 C17.9787016,6.16593595 18.3233973,6.16462787 17.936021,6.16462787 L12.0529816,6.16462787 L10.9300365,4.05432642 L16.7411225,4.05432642 Z M19.0627259,16.6644961 C19.0627259,17.1250252 18.3418476,18.0413377 17.9104853,18.0413377 L2,18.0413377 C1.5686377,18.0413377 0.937511111,17.1250252 0.937511111,16.6644961 L0.937511111,3.59312937 C0.937511111,2.82418942 1.61339507,2.44570974 2.04475737,2.44570974 L8.80599038,2.44570974 C8.89845112,2.44570974 8.98219125,2.4963632 9.02663277,2.58094337 L11.2587713,6.68345653 C11.3682819,6.88893706 11.5828031,7.01743545 11.8164705,7.01754677 L17.6126236,7.01754677 C18.0649489,7.01754677 19.0627259,8.09218719 19.0627259,8.54258559 L19.0627259,16.6644961 Z" id="Fill-1" fill="#000000"></path>
        <path d="M5,4 C4.4485,4 4,4.4485 4,5 C4,5.5515 4.4485,6 5,6 C5.5515,6 6,5.5515 6,5 C6,4.4485 5.5515,4 5,4" id="Fill-1-Copy" fill="#D3B365"></path>
    </g>
</svg>