<?xml version="1.0" encoding="UTF-8"?>
<svg width="31px" height="31px" viewBox="0 0 31 31" version="1.1" xmlns="http://www.w3.org/2000/svg" xmlns:xlink="http://www.w3.org/1999/xlink">
    <!-- Generator: Sketch 61.2 (89653) - https://sketch.com -->
    <title>水</title>
    <desc>Created with Sketch.</desc>
    <g id="exposaas小程序" stroke="none" stroke-width="1" fill="none" fill-rule="evenodd">
        <g id="水">
            <circle id="椭圆形" fill="#5294F9" cx="15.5" cy="15.5" r="15.5"></circle>
            <g id="icon/分类/水滴" transform="translate(8.500000, 8.000000)" fill="#FFFFFF">
                <path d="M7.35,0 C10.85,3.84667485 12.6,6.74605672 12.6,8.69814561 C12.6,11.6262789 10.2494949,14 7.35,14 C4.45050506,14 2.1,11.6262789 2.1,8.69814561 C2.1,6.74605672 3.85,3.84667485 7.35,0 Z M11.2995411,9.46445332 C11.1142238,9.4094783 10.9194283,9.51514162 10.8644533,9.70045893 C10.6186253,10.5291299 9.75150829,11.3454952 9.00204207,11.5639877 C8.81646762,11.6180884 8.70988706,11.8123835 8.76398773,11.9979579 C8.81808841,12.1835324 9.01238348,12.2901129 9.19795793,12.2360123 C10.1692684,11.9528453 11.2198423,10.9637606 11.5355467,9.89954107 C11.5905217,9.71422375 11.4848584,9.51942833 11.2995411,9.46445332 Z" id="形状结合"></path>
            </g>
        </g>
    </g>
</svg>