<?xml version="1.0" encoding="UTF-8"?>
<svg width="31px" height="31px" viewBox="0 0 31 31" version="1.1" xmlns="http://www.w3.org/2000/svg" xmlns:xlink="http://www.w3.org/1999/xlink">
    <!-- Generator: Sketch 61.2 (89653) - https://sketch.com -->
    <title>电</title>
    <desc>Created with Sketch.</desc>
    <g id="exposaas小程序" stroke="none" stroke-width="1" fill="none" fill-rule="evenodd">
        <g id="电">
            <circle id="椭圆形" fill="#ECBB49" cx="15.5" cy="15.5" r="15.5"></circle>
            <g id="icon/分类/雷电" transform="translate(8.000000, 8.000000)" fill="#FFFFFF">
                <path d="M10.9458676,0.145628498 L10.9972613,0.151600865 C11.1044111,0.178427389 11.169526,0.287036643 11.1426994,0.394186423 L11.1426994,0.394186423 L9.43844924,7.19948903 L12.5268076,7.2 C12.5622288,7.2 12.5966795,7.20939624 12.6268285,7.22680642 L12.6684094,7.25875935 C12.7464144,7.33696388 12.7462527,7.46359677 12.6680482,7.54160183 L12.6680482,7.54160183 L4.39255305,15.7959891 C4.34286071,15.8455547 4.27082326,15.8654451 4.20273868,15.8483991 C4.0955889,15.8215726 4.03047403,15.7129634 4.05730056,15.6058136 L4.05730056,15.6058136 L5.76044924,8.79948903 L2.67319245,8.8 C2.63777124,8.8 2.60332054,8.79060376 2.57317151,8.77319358 L2.53159062,8.74124065 C2.45358556,8.66303612 2.45374726,8.53640323 2.53195179,8.45839817 L2.53195179,8.45839817 L10.807447,0.204010876 C10.8571393,0.154445289 10.9291767,0.134554889 10.9972613,0.151600865 Z" id="形状结合"></path>
            </g>
        </g>
    </g>
</svg>