<?xml version="1.0" encoding="UTF-8"?>
<svg width="31px" height="31px" viewBox="0 0 31 31" version="1.1" xmlns="http://www.w3.org/2000/svg" xmlns:xlink="http://www.w3.org/1999/xlink">
    <!-- Generator: Sketch 61.2 (89653) - https://sketch.com -->
    <title>租</title>
    <desc>Created with Sketch.</desc>
    <g id="exposaas小程序" stroke="none" stroke-width="1" fill="none" fill-rule="evenodd">
        <g id="租">
            <circle id="椭圆形备份" fill="#6BC73C" cx="15.5" cy="15.5" r="15.5"></circle>
            <g id="icon/分类/桌子" transform="translate(8.000000, 8.000000)" fill="#FFFFFF">
                <path d="M15.8,4 C15.9104569,4 16,4.08954305 16,4.2 L16,6.2 C16,6.31045695 15.9104569,6.4 15.8,6.4 L14.4,6.4 L14.4,13.4 C14.4,13.5104569 14.3104569,13.6 14.2,13.6 L13,13.6 C12.8895431,13.6 12.8,13.5104569 12.8,13.4 L12.8,8 L3.2,8 L3.2,13.4 C3.2,13.5104569 3.11045695,13.6 3,13.6 L1.8,13.6 C1.68954305,13.6 1.6,13.5104569 1.6,13.4 L1.6,6.4 L0.2,6.4 C0.08954305,6.4 1.80060529e-16,6.31045695 0,6.2 L0,4.2 C-1.3527075e-17,4.08954305 0.08954305,4 0.2,4 L15.8,4 Z M12.1230769,6.4 L4,6.4 L3.92809949,6.40644454 C3.74150013,6.4403133 3.6,6.60363209 3.6,6.8 C3.6,6.99329966 3.7371128,7.15457492 3.91938605,7.19187342 L4,7.2 L12.1230769,7.2 L12.1949774,7.19355546 C12.3815768,7.1596867 12.5230769,6.99636791 12.5230769,6.8 C12.5230769,6.5790861 12.3439908,6.4 12.1230769,6.4 Z" id="形状结合"></path>
            </g>
        </g>
    </g>
</svg>