<?xml version="1.0" encoding="UTF-8"?>
<svg width="31px" height="31px" viewBox="0 0 31 31" version="1.1" xmlns="http://www.w3.org/2000/svg" xmlns:xlink="http://www.w3.org/1999/xlink">
    <!-- Generator: Sketch 61.2 (89653) - https://sketch.com -->
    <title>其它</title>
    <desc>Created with Sketch.</desc>
    <g id="exposaas小程序" stroke="none" stroke-width="1" fill="none" fill-rule="evenodd">
        <g id="其它">
            <circle id="椭圆形备份-2" fill="#7360C9" cx="15.5" cy="15.5" r="15.5"></circle>
            <g id="icon/分类/更多" transform="translate(8.000000, 8.000000)" fill="#FFFFFF">
                <path d="M1.6,6.4 C2.4836556,6.4 3.2,7.1163444 3.2,8 C3.2,8.8836556 2.4836556,9.6 1.6,9.6 C0.7163444,9.6 0,8.8836556 0,8 C0,7.1163444 0.7163444,6.4 1.6,6.4 Z M8,6.4 C8.8836556,6.4 9.6,7.1163444 9.6,8 C9.6,8.8836556 8.8836556,9.6 8,9.6 C7.1163444,9.6 6.4,8.8836556 6.4,8 C6.4,7.1163444 7.1163444,6.4 8,6.4 Z M14.4,6.4 C15.2836556,6.4 16,7.1163444 16,8 C16,8.8836556 15.2836556,9.6 14.4,9.6 C13.5163444,9.6 12.8,8.8836556 12.8,8 C12.8,7.1163444 13.5163444,6.4 14.4,6.4 Z" id="形状结合"></path>
            </g>
        </g>
    </g>
</svg>